<?xml version="1.0" standalone="no"?>
<!DOCTYPE svg PUBLIC "-//W3C//DTD SVG 20010904//EN"
 "http://www.w3.org/TR/2001/REC-SVG-20010904/DTD/svg10.dtd">
<svg version="1.0" xmlns="http://www.w3.org/2000/svg"
 width="357.000000pt" height="112.000000pt" viewBox="0 0 357.000000 112.000000"
 preserveAspectRatio="xMidYMid meet">

<g transform="translate(0.000000,112.000000) scale(0.100000,-0.100000)"
fill="#000000" stroke="none">
<path d="M88 1054 c-69 -45 -68 -36 -68 -501 0 -475 -2 -461 82 -502 l45 -21
1656 2 c1654 3 1656 3 1683 24 15 11 37 33 48 48 20 27 21 39 21 451 0 414 0
424 -21 452 -11 15 -36 38 -54 51 l-33 22 -1661 -1 -1661 0 -37 -25z m3383
-27 c59 -40 59 -35 59 -472 0 -437 0 -432 -59 -472 l-34 -23 -1646 0 c-1547 0
-1648 1 -1680 18 -19 9 -43 33 -53 52 -17 33 -18 61 -16 435 3 366 5 402 21
426 42 63 -78 59 1728 59 l1646 0 34 -23z"/>
<path d="M170 560 l0 -390 823 2 822 3 3 388 2 387 -825 0 -825 0 0 -390z
m431 113 c19 -12 31 -28 35 -51 12 -63 -29 -102 -106 -102 l-40 0 0 -45 c0
-38 -3 -45 -20 -45 -19 0 -20 7 -20 130 l0 130 61 0 c40 0 71 -6 90 -17z m154
-113 c0 -117 -2 -130 -17 -130 -16 0 -18 13 -18 130 0 117 2 130 18 130 15 0
17 -13 17 -130z m155 85 c17 -25 34 -45 39 -45 4 0 21 20 39 45 17 25 38 45
47 45 21 0 20 -4 -25 -69 l-39 -59 37 -53 c56 -80 56 -79 33 -79 -14 0 -32 17
-53 50 -18 27 -36 50 -39 50 -3 0 -21 -22 -40 -50 -19 -28 -42 -50 -51 -50
-25 0 -23 7 22 66 22 29 40 59 40 67 0 7 -18 38 -40 67 -22 29 -40 55 -40 57
0 2 9 3 20 3 11 0 31 -18 50 -45z m390 30 c0 -12 -13 -15 -60 -15 l-60 0 0
-40 0 -40 55 0 c42 0 55 -3 55 -15 0 -12 -13 -15 -55 -15 l-55 0 0 -45 0 -45
65 0 c51 0 65 -3 65 -15 0 -12 -16 -15 -85 -15 l-85 0 0 130 0 130 80 0 c64 0
80 -3 80 -15z m130 -100 l0 -115 65 0 c51 0 65 -3 65 -15 0 -12 -16 -15 -80
-15 l-80 0 0 130 c0 109 2 130 15 130 12 0 15 -19 15 -115z"/>
<path d="M490 605 l0 -55 36 0 c54 0 74 15 74 56 0 28 -5 36 -26 44 -14 6 -39
10 -55 10 -29 0 -29 -1 -29 -55z"/>
<path d="M2042 753 c-98 -48 -127 -189 -59 -292 46 -70 147 -92 228 -51 54 28
79 72 79 138 l0 52 -83 0 -84 0 0 -30 c0 -27 4 -30 31 -31 17 -1 37 -1 44 0
18 3 15 -23 -5 -48 -45 -53 -133 -25 -153 49 -13 47 0 108 28 133 32 29 80 33
112 8 37 -26 41 -26 63 5 15 20 16 28 6 40 -37 44 -144 58 -207 27z"/>
<path d="M2340 580 l0 -190 105 0 105 0 0 35 0 35 -65 0 -65 0 0 40 0 40 60 0
60 0 0 35 0 35 -60 0 -60 0 0 45 0 45 65 0 65 0 0 35 0 35 -105 0 -105 0 0
-190z"/>
<path d="M2600 580 l0 -190 40 0 39 0 3 115 3 115 70 -113 c71 -112 71 -112
113 -115 l42 -3 0 190 0 191 -40 0 -39 0 -3 -117 -3 -118 -73 118 -73 117 -40
0 -39 0 0 -190z"/>
<path d="M2970 580 l0 -190 40 0 40 0 0 190 0 190 -40 0 -40 0 0 -190z"/>
<path d="M3110 580 l0 -190 105 0 105 0 0 35 0 34 -62 3 -63 3 -3 38 -3 37 60
0 61 0 0 35 0 34 -57 3 -58 3 0 40 0 40 63 3 62 3 0 34 0 35 -105 0 -105 0 0
-190z"/>
</g>
</svg>
